<mxfile host="65bd71144e">
    <diagram id="E2TP2AmZqmfv6rPX08LN" name="Page-1">
        <mxGraphModel dx="711" dy="626" grid="1" gridSize="10" guides="1" tooltips="1" connect="1" arrows="1" fold="1" page="1" pageScale="1" pageWidth="690" pageHeight="980" background="none" math="0" shadow="0">
            <root>
                <mxCell id="0"/>
                <mxCell id="1" parent="0"/>
                <mxCell id="2" value="" style="rounded=1;whiteSpace=wrap;html=1;fillColor=#FFFFFF;fontColor=#0066ff;strokeColor=#0066ff;arcSize=9;glass=0;strokeWidth=2;" parent="1" vertex="1">
                    <mxGeometry x="80" y="190" width="550" height="210" as="geometry"/>
                </mxCell>
                <mxCell id="4" value="" style="rounded=1;whiteSpace=wrap;html=1;dashed=1;fillColor=#FFFFFF;fontColor=#0066ff;strokeColor=#0066ff;strokeWidth=2;" parent="1" vertex="1">
                    <mxGeometry x="90" y="250" width="520" height="140" as="geometry"/>
                </mxCell>
                <mxCell id="5" value="Namespace" style="text;html=1;strokeColor=none;fillColor=none;align=left;verticalAlign=middle;whiteSpace=wrap;rounded=0;fontColor=#0066ff;strokeWidth=2;" parent="1" vertex="1">
                    <mxGeometry x="100" y="250" width="90" height="20" as="geometry"/>
                </mxCell>
                <mxCell id="6" value="Deckhouse Virtualization" style="text;html=1;align=left;verticalAlign=middle;whiteSpace=wrap;rounded=0;labelBackgroundColor=none;labelBorderColor=none;fontColor=#0066ff;strokeWidth=2;" parent="1" vertex="1">
                    <mxGeometry x="90" y="200" width="140" height="20" as="geometry"/>
                </mxCell>
                <mxCell id="22" style="html=1;exitX=0.5;exitY=1;exitDx=0;exitDy=0;entryX=0.5;entryY=0;entryDx=0;entryDy=0;entryPerimeter=0;edgeStyle=orthogonalEdgeStyle;rounded=1;strokeColor=#0066ff;fontColor=#0066ff;strokeWidth=2;jumpStyle=arc;" parent="1" source="8" target="11" edge="1">
                    <mxGeometry relative="1" as="geometry">
                        <Array as="points">
                            <mxPoint x="160" y="440"/>
                            <mxPoint x="350" y="440"/>
                        </Array>
                    </mxGeometry>
                </mxCell>
                <mxCell id="8" value="VirtualDisk" style="rounded=1;whiteSpace=wrap;html=1;fillColor=#FFFFFF;fontColor=#0066ff;strokeColor=#0066ff;strokeWidth=2;" parent="1" vertex="1">
                    <mxGeometry x="100" y="340" width="120" height="40" as="geometry"/>
                </mxCell>
                <mxCell id="26" style="edgeStyle=orthogonalEdgeStyle;html=1;exitX=0.5;exitY=1;exitDx=0;exitDy=0;entryX=0.5;entryY=0;entryDx=0;entryDy=0;rounded=0;strokeColor=#0066ff;fontColor=#0066ff;strokeWidth=2;" parent="1" source="9" target="19" edge="1">
                    <mxGeometry relative="1" as="geometry"/>
                </mxCell>
                <mxCell id="9" value="ClusterVirtualImage" style="rounded=1;whiteSpace=wrap;html=1;fillColor=#FFFFFF;fontColor=#0066ff;strokeColor=#0066ff;strokeWidth=2;" parent="1" vertex="1">
                    <mxGeometry x="330" y="200" width="160" height="40" as="geometry"/>
                </mxCell>
                <mxCell id="11" value="storage" style="shape=cylinder3;whiteSpace=wrap;html=1;boundedLbl=1;backgroundOutline=1;size=15;fillColor=#FFFFFF;fontColor=#0066ff;strokeColor=#0066ff;rounded=0;strokeWidth=2;" parent="1" vertex="1">
                    <mxGeometry x="270" y="480" width="160" height="50" as="geometry"/>
                </mxCell>
                <mxCell id="27" style="edgeStyle=orthogonalEdgeStyle;html=1;exitX=0.5;exitY=1;exitDx=0;exitDy=0;entryX=0.5;entryY=0;entryDx=0;entryDy=0;rounded=0;strokeColor=#0066ff;fontColor=#0066ff;strokeWidth=2;" parent="1" source="17" target="8" edge="1">
                    <mxGeometry relative="1" as="geometry"/>
                </mxCell>
                <mxCell id="17" value="VirtualImage" style="rounded=1;whiteSpace=wrap;html=1;fillColor=#FFFFFF;fontColor=#0066ff;strokeColor=#0066ff;strokeWidth=2;" parent="1" vertex="1">
                    <mxGeometry x="100" y="280" width="120" height="40" as="geometry"/>
                </mxCell>
                <mxCell id="23" style="html=1;exitX=0.5;exitY=1;exitDx=0;exitDy=0;entryX=0.5;entryY=0;entryDx=0;entryDy=0;entryPerimeter=0;edgeStyle=orthogonalEdgeStyle;rounded=1;strokeColor=#0066ff;fontColor=#0066ff;strokeWidth=2;jumpStyle=arc;" parent="1" source="18" target="11" edge="1">
                    <mxGeometry relative="1" as="geometry">
                        <mxPoint x="320" y="440" as="targetPoint"/>
                        <Array as="points">
                            <mxPoint x="285" y="440"/>
                            <mxPoint x="350" y="440"/>
                        </Array>
                    </mxGeometry>
                </mxCell>
                <mxCell id="18" value="VirtualDisk" style="rounded=1;whiteSpace=wrap;html=1;fillColor=#FFFFFF;fontColor=#0066ff;strokeColor=#0066ff;strokeWidth=2;" parent="1" vertex="1">
                    <mxGeometry x="225" y="340" width="120" height="40" as="geometry"/>
                </mxCell>
                <mxCell id="24" style="html=1;exitX=0.5;exitY=1;exitDx=0;exitDy=0;entryX=0.5;entryY=0;entryDx=0;entryDy=0;entryPerimeter=0;edgeStyle=orthogonalEdgeStyle;rounded=1;strokeColor=#0066ff;fontColor=#0066ff;strokeWidth=2;jumpStyle=arc;" parent="1" source="19" target="11" edge="1">
                    <mxGeometry relative="1" as="geometry">
                        <mxPoint x="320" y="440" as="targetPoint"/>
                        <Array as="points">
                            <mxPoint x="410" y="440"/>
                            <mxPoint x="350" y="440"/>
                        </Array>
                    </mxGeometry>
                </mxCell>
                <mxCell id="19" value="VirtualDisk" style="rounded=1;whiteSpace=wrap;html=1;fillColor=#FFFFFF;fontColor=#0066ff;strokeColor=#0066ff;strokeWidth=2;" parent="1" vertex="1">
                    <mxGeometry x="350" y="340" width="120" height="40" as="geometry"/>
                </mxCell>
                <mxCell id="25" style="html=1;exitX=0.5;exitY=1;exitDx=0;exitDy=0;edgeStyle=orthogonalEdgeStyle;rounded=1;strokeColor=#0066ff;fontColor=#0066ff;strokeWidth=2;jumpStyle=arc;" parent="1" source="21" target="11" edge="1">
                    <mxGeometry relative="1" as="geometry">
                        <Array as="points">
                            <mxPoint x="540" y="440"/>
                            <mxPoint x="350" y="440"/>
                        </Array>
                    </mxGeometry>
                </mxCell>
                <mxCell id="21" value="VirtualDisk" style="rounded=1;whiteSpace=wrap;html=1;fillColor=#FFFFFF;fontColor=#0066ff;strokeColor=#0066ff;strokeWidth=2;" parent="1" vertex="1">
                    <mxGeometry x="480" y="340" width="120" height="40" as="geometry"/>
                </mxCell>
                <mxCell id="30" style="edgeStyle=orthogonalEdgeStyle;html=1;exitX=0.5;exitY=1;exitDx=0;exitDy=0;rounded=0;strokeColor=#0066ff;fontColor=#0066ff;strokeWidth=2;" parent="1" source="29" target="18" edge="1">
                    <mxGeometry relative="1" as="geometry"/>
                </mxCell>
                <mxCell id="29" value="http-server / container registry" style="rounded=1;whiteSpace=wrap;html=1;fillColor=#FFFFFF;fontColor=#0066ff;strokeColor=#0066ff;strokeWidth=2;" parent="1" vertex="1">
                    <mxGeometry x="205" y="40" width="160" height="40" as="geometry"/>
                </mxCell>
                <mxCell id="28" value="Network" style="ellipse;shape=cloud;whiteSpace=wrap;html=1;fillColor=#FFFFFF;fontColor=#0066ff;strokeColor=#0066ff;rounded=0;strokeWidth=2;" parent="1" vertex="1">
                    <mxGeometry x="220" y="100" width="120" height="80" as="geometry"/>
                </mxCell>
            </root>
        </mxGraphModel>
    </diagram>
    <diagram id="3HleheF3-EX4s2hkzfmH" name="Page-2">
        <mxGraphModel grid="1" page="1" gridSize="10" guides="1" tooltips="1" connect="1" arrows="1" fold="1" pageScale="1" pageWidth="690" pageHeight="980" math="0" shadow="0">
            <root>
                <mxCell id="0"/>
                <mxCell id="1" parent="0"/>
            </root>
        </mxGraphModel>
    </diagram>
</mxfile>
